<?xml version="1.0" standalone="no"?>
<!DOCTYPE svg PUBLIC "-//W3C//DTD SVG 20010904//EN"
 "http://www.w3.org/TR/2001/REC-SVG-20010904/DTD/svg10.dtd">
<svg version="1.0" xmlns="http://www.w3.org/2000/svg"
 width="589.000000pt" height="589.000000pt" viewBox="0 0 589.000000 589.000000"
 preserveAspectRatio="xMidYMid meet">
<metadata>
Created by potrace 1.14, written by Peter Selinger 2001-2017
</metadata>
<g transform="translate(0.000000,589.000000) scale(0.100000,-0.100000)"
fill="#000000" stroke="none">
<path d="M3370 5883 c-385 -20 -609 -66 -925 -188 -138 -53 -193 -80 -537
-268 -214 -115 -300 -168 -375 -229 -215 -174 -494 -457 -578 -588 -66 -102
-85 -164 -94 -314 -12 -181 -26 -211 -117 -251 -111 -50 -182 -190 -239 -471
-47 -231 -59 -382 -59 -734 0 -512 28 -668 225 -1267 172 -525 192 -643 164
-992 -22 -277 -14 -360 34 -376 29 -9 77 20 150 89 152 145 247 361 287 656
13 96 14 178 8 490 -4 259 -3 417 6 510 58 663 242 1321 424 1517 52 55 56 58
103 58 62 0 103 -25 103 -63 0 -34 -27 -126 -78 -270 -73 -200 -136 -464 -172
-716 -35 -240 -21 -336 50 -336 34 0 63 -31 93 -100 65 -147 157 -632 141
-744 -6 -46 -13 -56 -75 -116 -73 -70 -89 -99 -89 -162 0 -89 77 -152 185
-151 100 1 319 66 471 139 148 72 213 154 308 388 58 145 135 256 178 256 42
0 91 -163 122 -405 21 -164 48 -263 101 -373 57 -120 92 -169 189 -270 137
-143 335 -276 621 -417 486 -239 665 -245 665 -23 0 82 -25 182 -100 402 -72
211 -140 472 -169 652 -60 366 -104 462 -330 716 l-121 138 99 0 c54 0 113 -3
130 -6 40 -8 114 -74 147 -130 33 -57 87 -207 119 -335 14 -56 36 -120 47
-143 49 -96 202 -206 334 -241 70 -18 165 -20 182 -3 30 30 7 122 -121 478
-167 466 -199 628 -217 1112 -6 154 -16 302 -24 339 -29 134 -91 223 -308 434
-201 198 -371 323 -563 415 -126 61 -195 118 -195 164 0 86 109 108 310 61
164 -37 171 -38 219 -25 59 16 132 90 248 255 257 363 414 480 808 606 180 57
285 113 285 151 0 54 -232 218 -491 347 -200 100 -262 121 -359 121 -81 0 -95
6 -123 52 -34 55 -170 103 -370 132 -196 29 -505 41 -727 29z m320 -1173 c178
-13 349 -37 402 -56 53 -19 88 -51 88 -81 0 -43 -38 -102 -79 -122 -74 -38
-154 -43 -546 -36 -516 9 -673 -8 -944 -97 -592 -197 -1071 -680 -1261 -1273
-73 -228 -142 -576 -176 -890 -21 -193 -24 -561 -7 -751 18 -192 -3 -402 -44
-436 -31 -25 -46 38 -73 310 -46 465 -76 1010 -65 1192 12 202 53 408 117 595
173 507 552 985 1030 1302 261 172 625 319 848 342 121 12 551 13 710 1z
m-269 -840 c280 -32 499 -141 718 -356 71 -70 82 -85 72 -98 -26 -31 -173 -64
-391 -86 -322 -34 -622 -132 -1095 -360 -82 -40 -229 -108 -325 -151 -163 -73
-176 -78 -188 -61 -40 51 42 444 133 637 147 315 627 526 1076 475z m946 -960
c38 -23 56 -55 77 -137 23 -87 21 -168 -5 -210 -56 -91 -241 -123 -719 -123
-241 0 -341 -10 -379 -38 -56 -41 -64 -157 -18 -249 40 -77 96 -144 302 -353
244 -249 283 -303 339 -472 41 -123 163 -732 154 -774 -2 -12 -23 -3 -98 46
-96 63 -303 221 -372 282 -100 90 -138 181 -163 387 -42 346 -99 519 -209 639
-127 137 -285 162 -566 92 -70 -18 -155 -33 -193 -33 -66 -2 -70 -1 -98 31
-65 72 -26 132 151 231 52 30 210 129 350 221 282 186 391 247 555 313 174 70
296 103 525 142 176 30 323 32 367 5z"/>
</g>
</svg>
